<mxfile host="app.diagrams.net" modified="2022-11-23T12:20:41.409Z" agent="5.0 (Windows NT 10.0; Win64; x64) AppleWebKit/537.36 (KHTML, like Gecko) Chrome/107.0.0.0 Safari/537.36" version="20.6.0" etag="tE2OKvuUGw7-well4xwg" type="github">
  <diagram id="wtk5QLIoAwouslw7U4_e" name="第 1 页">
    <mxGraphModel dx="1599" dy="1215" grid="1" gridSize="10" guides="1" tooltips="1" connect="1" arrows="1" fold="1" page="1" pageScale="1" pageWidth="850" pageHeight="1100" math="0" shadow="0">
      <root>
        <mxCell id="0" />
        <mxCell id="1" parent="0" />
        <mxCell id="UVKUmxEZPX85mDdvoM-r-1" value="&lt;font style=&quot;font-size: 16px;&quot;&gt;系&lt;/font&gt;" style="rounded=0;whiteSpace=wrap;html=1;" vertex="1" parent="1">
          <mxGeometry x="270" y="240" width="120" height="60" as="geometry" />
        </mxCell>
        <mxCell id="UVKUmxEZPX85mDdvoM-r-2" value="属于" style="rhombus;whiteSpace=wrap;html=1;fontSize=16;" vertex="1" parent="1">
          <mxGeometry x="190" y="330" width="80" height="80" as="geometry" />
        </mxCell>
        <mxCell id="UVKUmxEZPX85mDdvoM-r-3" value="属于" style="rhombus;whiteSpace=wrap;html=1;fontSize=16;" vertex="1" parent="1">
          <mxGeometry x="390" y="330" width="80" height="80" as="geometry" />
        </mxCell>
        <mxCell id="UVKUmxEZPX85mDdvoM-r-4" value="" style="endArrow=none;html=1;rounded=0;fontSize=16;entryX=0;entryY=0.5;entryDx=0;entryDy=0;exitX=0.5;exitY=0;exitDx=0;exitDy=0;" edge="1" parent="1" source="UVKUmxEZPX85mDdvoM-r-2" target="UVKUmxEZPX85mDdvoM-r-1">
          <mxGeometry width="50" height="50" relative="1" as="geometry">
            <mxPoint x="220" y="370" as="sourcePoint" />
            <mxPoint x="270" y="320" as="targetPoint" />
          </mxGeometry>
        </mxCell>
        <mxCell id="UVKUmxEZPX85mDdvoM-r-5" value="1" style="edgeLabel;html=1;align=center;verticalAlign=middle;resizable=0;points=[];fontSize=16;" vertex="1" connectable="0" parent="UVKUmxEZPX85mDdvoM-r-4">
          <mxGeometry x="-0.2405" y="1" relative="1" as="geometry">
            <mxPoint as="offset" />
          </mxGeometry>
        </mxCell>
        <mxCell id="UVKUmxEZPX85mDdvoM-r-6" value="" style="endArrow=none;html=1;rounded=0;fontSize=16;entryX=1;entryY=0.5;entryDx=0;entryDy=0;exitX=0.5;exitY=0;exitDx=0;exitDy=0;" edge="1" parent="1" source="UVKUmxEZPX85mDdvoM-r-3" target="UVKUmxEZPX85mDdvoM-r-1">
          <mxGeometry width="50" height="50" relative="1" as="geometry">
            <mxPoint x="320" y="410" as="sourcePoint" />
            <mxPoint x="370" y="360" as="targetPoint" />
          </mxGeometry>
        </mxCell>
        <mxCell id="UVKUmxEZPX85mDdvoM-r-7" value="1" style="edgeLabel;html=1;align=center;verticalAlign=middle;resizable=0;points=[];fontSize=16;" vertex="1" connectable="0" parent="UVKUmxEZPX85mDdvoM-r-6">
          <mxGeometry x="-0.1905" y="1" relative="1" as="geometry">
            <mxPoint as="offset" />
          </mxGeometry>
        </mxCell>
        <mxCell id="UVKUmxEZPX85mDdvoM-r-8" value="班级" style="rounded=0;whiteSpace=wrap;html=1;fontSize=16;" vertex="1" parent="1">
          <mxGeometry x="70" y="480" width="120" height="60" as="geometry" />
        </mxCell>
        <mxCell id="UVKUmxEZPX85mDdvoM-r-9" value="" style="endArrow=none;html=1;rounded=0;fontSize=16;entryX=0.5;entryY=1;entryDx=0;entryDy=0;exitX=0.5;exitY=0;exitDx=0;exitDy=0;" edge="1" parent="1" source="UVKUmxEZPX85mDdvoM-r-8" target="UVKUmxEZPX85mDdvoM-r-2">
          <mxGeometry width="50" height="50" relative="1" as="geometry">
            <mxPoint x="300" y="490" as="sourcePoint" />
            <mxPoint x="350" y="440" as="targetPoint" />
          </mxGeometry>
        </mxCell>
        <mxCell id="UVKUmxEZPX85mDdvoM-r-10" value="n" style="edgeLabel;html=1;align=center;verticalAlign=middle;resizable=0;points=[];fontSize=16;" vertex="1" connectable="0" parent="UVKUmxEZPX85mDdvoM-r-9">
          <mxGeometry x="-0.2157" relative="1" as="geometry">
            <mxPoint y="-12" as="offset" />
          </mxGeometry>
        </mxCell>
        <mxCell id="UVKUmxEZPX85mDdvoM-r-74" value="1" style="edgeStyle=none;rounded=0;orthogonalLoop=1;jettySize=auto;html=1;exitX=0.5;exitY=1;exitDx=0;exitDy=0;entryX=0.5;entryY=0;entryDx=0;entryDy=0;endArrow=none;endFill=0;" edge="1" parent="1" source="UVKUmxEZPX85mDdvoM-r-11" target="UVKUmxEZPX85mDdvoM-r-73">
          <mxGeometry relative="1" as="geometry" />
        </mxCell>
        <mxCell id="UVKUmxEZPX85mDdvoM-r-11" value="教研室" style="rounded=0;whiteSpace=wrap;html=1;fontSize=16;" vertex="1" parent="1">
          <mxGeometry x="470" y="480" width="120" height="60" as="geometry" />
        </mxCell>
        <mxCell id="UVKUmxEZPX85mDdvoM-r-12" value="" style="endArrow=none;html=1;rounded=0;fontSize=16;entryX=0.5;entryY=1;entryDx=0;entryDy=0;exitX=0.5;exitY=0;exitDx=0;exitDy=0;" edge="1" parent="1" source="UVKUmxEZPX85mDdvoM-r-11" target="UVKUmxEZPX85mDdvoM-r-3">
          <mxGeometry width="50" height="50" relative="1" as="geometry">
            <mxPoint x="240" y="490" as="sourcePoint" />
            <mxPoint x="240" y="420" as="targetPoint" />
          </mxGeometry>
        </mxCell>
        <mxCell id="UVKUmxEZPX85mDdvoM-r-13" value="n" style="edgeLabel;html=1;align=center;verticalAlign=middle;resizable=0;points=[];fontSize=16;" vertex="1" connectable="0" parent="UVKUmxEZPX85mDdvoM-r-12">
          <mxGeometry x="-0.2157" relative="1" as="geometry">
            <mxPoint y="-12" as="offset" />
          </mxGeometry>
        </mxCell>
        <mxCell id="UVKUmxEZPX85mDdvoM-r-28" style="edgeStyle=orthogonalEdgeStyle;rounded=0;orthogonalLoop=1;jettySize=auto;html=1;exitX=0.5;exitY=1;exitDx=0;exitDy=0;entryX=0.5;entryY=0;entryDx=0;entryDy=0;fontSize=16;endArrow=none;endFill=0;" edge="1" parent="1" source="UVKUmxEZPX85mDdvoM-r-30" target="UVKUmxEZPX85mDdvoM-r-33">
          <mxGeometry relative="1" as="geometry" />
        </mxCell>
        <mxCell id="UVKUmxEZPX85mDdvoM-r-29" value="n" style="edgeLabel;html=1;align=center;verticalAlign=middle;resizable=0;points=[];fontSize=16;" vertex="1" connectable="0" parent="UVKUmxEZPX85mDdvoM-r-28">
          <mxGeometry x="0.2758" y="-1" relative="1" as="geometry">
            <mxPoint x="1" y="-5" as="offset" />
          </mxGeometry>
        </mxCell>
        <mxCell id="UVKUmxEZPX85mDdvoM-r-30" value="属于" style="rhombus;whiteSpace=wrap;html=1;fontSize=16;" vertex="1" parent="1">
          <mxGeometry x="90" y="570" width="80" height="80" as="geometry" />
        </mxCell>
        <mxCell id="UVKUmxEZPX85mDdvoM-r-31" value="" style="endArrow=none;html=1;rounded=0;fontSize=16;entryX=0.5;entryY=1;entryDx=0;entryDy=0;exitX=0.5;exitY=0;exitDx=0;exitDy=0;" edge="1" parent="1" source="UVKUmxEZPX85mDdvoM-r-30" target="UVKUmxEZPX85mDdvoM-r-8">
          <mxGeometry width="50" height="50" relative="1" as="geometry">
            <mxPoint x="240" y="340" as="sourcePoint" />
            <mxPoint x="280" y="280" as="targetPoint" />
          </mxGeometry>
        </mxCell>
        <mxCell id="UVKUmxEZPX85mDdvoM-r-32" value="1" style="edgeLabel;html=1;align=center;verticalAlign=middle;resizable=0;points=[];fontSize=16;" vertex="1" connectable="0" parent="UVKUmxEZPX85mDdvoM-r-31">
          <mxGeometry x="-0.2405" y="1" relative="1" as="geometry">
            <mxPoint as="offset" />
          </mxGeometry>
        </mxCell>
        <mxCell id="UVKUmxEZPX85mDdvoM-r-33" value="学生" style="rounded=0;whiteSpace=wrap;html=1;fontSize=16;" vertex="1" parent="1">
          <mxGeometry x="70" y="690" width="120" height="60" as="geometry" />
        </mxCell>
        <mxCell id="UVKUmxEZPX85mDdvoM-r-34" value="课程" style="rounded=0;whiteSpace=wrap;html=1;fontSize=16;" vertex="1" parent="1">
          <mxGeometry x="70" y="910" width="120" height="60" as="geometry" />
        </mxCell>
        <mxCell id="UVKUmxEZPX85mDdvoM-r-35" value="选修" style="rhombus;whiteSpace=wrap;html=1;fontSize=16;" vertex="1" parent="1">
          <mxGeometry x="90" y="790" width="80" height="80" as="geometry" />
        </mxCell>
        <mxCell id="UVKUmxEZPX85mDdvoM-r-36" style="edgeStyle=orthogonalEdgeStyle;rounded=0;orthogonalLoop=1;jettySize=auto;html=1;exitX=0.5;exitY=1;exitDx=0;exitDy=0;entryX=0.5;entryY=0;entryDx=0;entryDy=0;fontSize=16;endArrow=none;endFill=0;" edge="1" parent="1">
          <mxGeometry relative="1" as="geometry">
            <mxPoint x="129.81999999999994" y="750" as="sourcePoint" />
            <mxPoint x="129.81999999999994" y="790" as="targetPoint" />
          </mxGeometry>
        </mxCell>
        <mxCell id="UVKUmxEZPX85mDdvoM-r-37" value="n" style="edgeLabel;html=1;align=center;verticalAlign=middle;resizable=0;points=[];fontSize=16;" vertex="1" connectable="0" parent="UVKUmxEZPX85mDdvoM-r-36">
          <mxGeometry x="0.2758" y="-1" relative="1" as="geometry">
            <mxPoint x="1" y="-5" as="offset" />
          </mxGeometry>
        </mxCell>
        <mxCell id="UVKUmxEZPX85mDdvoM-r-38" style="edgeStyle=orthogonalEdgeStyle;rounded=0;orthogonalLoop=1;jettySize=auto;html=1;exitX=0.5;exitY=1;exitDx=0;exitDy=0;entryX=0.5;entryY=0;entryDx=0;entryDy=0;fontSize=16;endArrow=none;endFill=0;" edge="1" parent="1">
          <mxGeometry relative="1" as="geometry">
            <mxPoint x="129.81999999999994" y="870" as="sourcePoint" />
            <mxPoint x="129.81999999999994" y="910" as="targetPoint" />
          </mxGeometry>
        </mxCell>
        <mxCell id="UVKUmxEZPX85mDdvoM-r-39" value="m" style="edgeLabel;html=1;align=center;verticalAlign=middle;resizable=0;points=[];fontSize=16;" vertex="1" connectable="0" parent="UVKUmxEZPX85mDdvoM-r-38">
          <mxGeometry x="0.2758" y="-1" relative="1" as="geometry">
            <mxPoint x="1" y="-5" as="offset" />
          </mxGeometry>
        </mxCell>
        <mxCell id="UVKUmxEZPX85mDdvoM-r-40" value="研究生" style="rounded=0;whiteSpace=wrap;html=1;fontSize=16;" vertex="1" parent="1">
          <mxGeometry x="470" y="910" width="120" height="60" as="geometry" />
        </mxCell>
        <mxCell id="UVKUmxEZPX85mDdvoM-r-41" value="指导" style="rhombus;whiteSpace=wrap;html=1;fontSize=16;" vertex="1" parent="1">
          <mxGeometry x="490" y="800" width="80" height="80" as="geometry" />
        </mxCell>
        <mxCell id="UVKUmxEZPX85mDdvoM-r-42" value="属于" style="rhombus;whiteSpace=wrap;html=1;fontSize=16;" vertex="1" parent="1">
          <mxGeometry x="290" y="800" width="80" height="80" as="geometry" />
        </mxCell>
        <mxCell id="UVKUmxEZPX85mDdvoM-r-43" value="1" style="endArrow=none;html=1;rounded=0;fontSize=16;entryX=1;entryY=0.5;entryDx=0;entryDy=0;exitX=0.5;exitY=0;exitDx=0;exitDy=0;" edge="1" parent="1" source="UVKUmxEZPX85mDdvoM-r-42" target="UVKUmxEZPX85mDdvoM-r-33">
          <mxGeometry width="50" height="50" relative="1" as="geometry">
            <mxPoint x="280" y="780" as="sourcePoint" />
            <mxPoint x="290" y="730" as="targetPoint" />
          </mxGeometry>
        </mxCell>
        <mxCell id="UVKUmxEZPX85mDdvoM-r-44" value="1" style="endArrow=none;html=1;rounded=0;fontSize=16;entryX=0.5;entryY=1;entryDx=0;entryDy=0;exitX=0;exitY=0.5;exitDx=0;exitDy=0;" edge="1" parent="1" source="UVKUmxEZPX85mDdvoM-r-40" target="UVKUmxEZPX85mDdvoM-r-42">
          <mxGeometry width="50" height="50" relative="1" as="geometry">
            <mxPoint x="300" y="840" as="sourcePoint" />
            <mxPoint x="330" y="935" as="targetPoint" />
          </mxGeometry>
        </mxCell>
        <mxCell id="UVKUmxEZPX85mDdvoM-r-45" value="n" style="endArrow=none;html=1;rounded=0;fontSize=16;entryX=0.5;entryY=1;entryDx=0;entryDy=0;exitX=0.5;exitY=0;exitDx=0;exitDy=0;" edge="1" parent="1" source="UVKUmxEZPX85mDdvoM-r-40" target="UVKUmxEZPX85mDdvoM-r-41">
          <mxGeometry width="50" height="50" relative="1" as="geometry">
            <mxPoint x="530" y="915" as="sourcePoint" />
            <mxPoint x="580" y="865" as="targetPoint" />
          </mxGeometry>
        </mxCell>
        <mxCell id="UVKUmxEZPX85mDdvoM-r-52" style="rounded=0;orthogonalLoop=1;jettySize=auto;html=1;exitX=0.5;exitY=1;exitDx=0;exitDy=0;entryX=0.5;entryY=0;entryDx=0;entryDy=0;endArrow=none;endFill=0;" edge="1" parent="1" source="UVKUmxEZPX85mDdvoM-r-48" target="UVKUmxEZPX85mDdvoM-r-1">
          <mxGeometry relative="1" as="geometry" />
        </mxCell>
        <mxCell id="UVKUmxEZPX85mDdvoM-r-48" value="系号" style="rounded=1;whiteSpace=wrap;html=1;" vertex="1" parent="1">
          <mxGeometry x="230" y="150" width="80" height="40" as="geometry" />
        </mxCell>
        <mxCell id="UVKUmxEZPX85mDdvoM-r-53" style="edgeStyle=none;rounded=0;orthogonalLoop=1;jettySize=auto;html=1;exitX=0.5;exitY=1;exitDx=0;exitDy=0;entryX=0.5;entryY=0;entryDx=0;entryDy=0;endArrow=none;endFill=0;" edge="1" parent="1" source="UVKUmxEZPX85mDdvoM-r-49" target="UVKUmxEZPX85mDdvoM-r-1">
          <mxGeometry relative="1" as="geometry" />
        </mxCell>
        <mxCell id="UVKUmxEZPX85mDdvoM-r-49" value="系名" style="rounded=1;whiteSpace=wrap;html=1;" vertex="1" parent="1">
          <mxGeometry x="350" y="150" width="80" height="40" as="geometry" />
        </mxCell>
        <mxCell id="UVKUmxEZPX85mDdvoM-r-58" style="edgeStyle=none;rounded=0;orthogonalLoop=1;jettySize=auto;html=1;exitX=1;exitY=0.5;exitDx=0;exitDy=0;entryX=0;entryY=0.5;entryDx=0;entryDy=0;endArrow=none;endFill=0;" edge="1" parent="1" source="UVKUmxEZPX85mDdvoM-r-56" target="UVKUmxEZPX85mDdvoM-r-8">
          <mxGeometry relative="1" as="geometry" />
        </mxCell>
        <mxCell id="UVKUmxEZPX85mDdvoM-r-56" value="班号" style="rounded=1;whiteSpace=wrap;html=1;" vertex="1" parent="1">
          <mxGeometry x="-60" y="490" width="80" height="40" as="geometry" />
        </mxCell>
        <mxCell id="UVKUmxEZPX85mDdvoM-r-61" style="edgeStyle=none;rounded=0;orthogonalLoop=1;jettySize=auto;html=1;exitX=0;exitY=1;exitDx=0;exitDy=0;entryX=0.5;entryY=0;entryDx=0;entryDy=0;endArrow=none;endFill=0;" edge="1" parent="1" source="UVKUmxEZPX85mDdvoM-r-60" target="UVKUmxEZPX85mDdvoM-r-11">
          <mxGeometry relative="1" as="geometry" />
        </mxCell>
        <mxCell id="UVKUmxEZPX85mDdvoM-r-60" value="教研室号" style="rounded=1;whiteSpace=wrap;html=1;" vertex="1" parent="1">
          <mxGeometry x="570" y="410" width="80" height="40" as="geometry" />
        </mxCell>
        <mxCell id="UVKUmxEZPX85mDdvoM-r-63" style="edgeStyle=none;rounded=0;orthogonalLoop=1;jettySize=auto;html=1;exitX=1;exitY=0.5;exitDx=0;exitDy=0;entryX=0;entryY=0.5;entryDx=0;entryDy=0;endArrow=none;endFill=0;" edge="1" parent="1" source="UVKUmxEZPX85mDdvoM-r-62" target="UVKUmxEZPX85mDdvoM-r-33">
          <mxGeometry relative="1" as="geometry" />
        </mxCell>
        <mxCell id="UVKUmxEZPX85mDdvoM-r-62" value="学号" style="rounded=1;whiteSpace=wrap;html=1;" vertex="1" parent="1">
          <mxGeometry x="-60" y="680" width="80" height="40" as="geometry" />
        </mxCell>
        <mxCell id="UVKUmxEZPX85mDdvoM-r-65" style="edgeStyle=none;rounded=0;orthogonalLoop=1;jettySize=auto;html=1;exitX=1;exitY=0.5;exitDx=0;exitDy=0;entryX=0;entryY=0.5;entryDx=0;entryDy=0;endArrow=none;endFill=0;" edge="1" parent="1" source="UVKUmxEZPX85mDdvoM-r-64" target="UVKUmxEZPX85mDdvoM-r-33">
          <mxGeometry relative="1" as="geometry" />
        </mxCell>
        <mxCell id="UVKUmxEZPX85mDdvoM-r-64" value="姓名" style="rounded=1;whiteSpace=wrap;html=1;" vertex="1" parent="1">
          <mxGeometry x="-60" y="730" width="80" height="40" as="geometry" />
        </mxCell>
        <mxCell id="UVKUmxEZPX85mDdvoM-r-68" style="edgeStyle=none;rounded=0;orthogonalLoop=1;jettySize=auto;html=1;exitX=1;exitY=0.5;exitDx=0;exitDy=0;entryX=0;entryY=0.5;entryDx=0;entryDy=0;endArrow=none;endFill=0;" edge="1" parent="1" source="UVKUmxEZPX85mDdvoM-r-66" target="UVKUmxEZPX85mDdvoM-r-34">
          <mxGeometry relative="1" as="geometry" />
        </mxCell>
        <mxCell id="UVKUmxEZPX85mDdvoM-r-66" value="课程号" style="rounded=1;whiteSpace=wrap;html=1;" vertex="1" parent="1">
          <mxGeometry x="-60" y="895" width="80" height="40" as="geometry" />
        </mxCell>
        <mxCell id="UVKUmxEZPX85mDdvoM-r-71" style="edgeStyle=none;rounded=0;orthogonalLoop=1;jettySize=auto;html=1;exitX=1;exitY=0.5;exitDx=0;exitDy=0;entryX=-0.005;entryY=0.608;entryDx=0;entryDy=0;entryPerimeter=0;endArrow=none;endFill=0;" edge="1" parent="1" source="UVKUmxEZPX85mDdvoM-r-67" target="UVKUmxEZPX85mDdvoM-r-34">
          <mxGeometry relative="1" as="geometry" />
        </mxCell>
        <mxCell id="UVKUmxEZPX85mDdvoM-r-67" value="课程名" style="rounded=1;whiteSpace=wrap;html=1;" vertex="1" parent="1">
          <mxGeometry x="-60" y="945" width="80" height="40" as="geometry" />
        </mxCell>
        <mxCell id="UVKUmxEZPX85mDdvoM-r-84" value="1" style="edgeStyle=none;rounded=0;orthogonalLoop=1;jettySize=auto;html=1;exitX=0.5;exitY=1;exitDx=0;exitDy=0;entryX=0.5;entryY=0;entryDx=0;entryDy=0;endArrow=none;endFill=0;" edge="1" parent="1" source="UVKUmxEZPX85mDdvoM-r-72" target="UVKUmxEZPX85mDdvoM-r-41">
          <mxGeometry relative="1" as="geometry" />
        </mxCell>
        <mxCell id="UVKUmxEZPX85mDdvoM-r-72" value="教员" style="rounded=0;whiteSpace=wrap;html=1;fontSize=16;" vertex="1" parent="1">
          <mxGeometry x="470" y="700" width="120" height="60" as="geometry" />
        </mxCell>
        <mxCell id="UVKUmxEZPX85mDdvoM-r-75" value="n" style="edgeStyle=none;rounded=0;orthogonalLoop=1;jettySize=auto;html=1;exitX=0.5;exitY=1;exitDx=0;exitDy=0;entryX=0.5;entryY=0;entryDx=0;entryDy=0;endArrow=none;endFill=0;" edge="1" parent="1" source="UVKUmxEZPX85mDdvoM-r-73" target="UVKUmxEZPX85mDdvoM-r-72">
          <mxGeometry relative="1" as="geometry" />
        </mxCell>
        <mxCell id="UVKUmxEZPX85mDdvoM-r-73" value="属于" style="rhombus;whiteSpace=wrap;html=1;fontSize=16;" vertex="1" parent="1">
          <mxGeometry x="490" y="580" width="80" height="80" as="geometry" />
        </mxCell>
        <mxCell id="UVKUmxEZPX85mDdvoM-r-82" style="edgeStyle=none;rounded=0;orthogonalLoop=1;jettySize=auto;html=1;exitX=0;exitY=0.5;exitDx=0;exitDy=0;entryX=1;entryY=0.5;entryDx=0;entryDy=0;endArrow=none;endFill=0;" edge="1" parent="1" source="UVKUmxEZPX85mDdvoM-r-78" target="UVKUmxEZPX85mDdvoM-r-72">
          <mxGeometry relative="1" as="geometry" />
        </mxCell>
        <mxCell id="UVKUmxEZPX85mDdvoM-r-78" value="职工号" style="rounded=1;whiteSpace=wrap;html=1;" vertex="1" parent="1">
          <mxGeometry x="660" y="660" width="80" height="40" as="geometry" />
        </mxCell>
        <mxCell id="UVKUmxEZPX85mDdvoM-r-83" style="edgeStyle=none;rounded=0;orthogonalLoop=1;jettySize=auto;html=1;exitX=0;exitY=0.5;exitDx=0;exitDy=0;entryX=1;entryY=0.5;entryDx=0;entryDy=0;endArrow=none;endFill=0;" edge="1" parent="1" source="UVKUmxEZPX85mDdvoM-r-79" target="UVKUmxEZPX85mDdvoM-r-72">
          <mxGeometry relative="1" as="geometry" />
        </mxCell>
        <mxCell id="UVKUmxEZPX85mDdvoM-r-79" value="姓名" style="rounded=1;whiteSpace=wrap;html=1;" vertex="1" parent="1">
          <mxGeometry x="660" y="710" width="80" height="40" as="geometry" />
        </mxCell>
        <mxCell id="UVKUmxEZPX85mDdvoM-r-86" style="edgeStyle=none;rounded=0;orthogonalLoop=1;jettySize=auto;html=1;exitX=0;exitY=0.5;exitDx=0;exitDy=0;entryX=1;entryY=0.5;entryDx=0;entryDy=0;endArrow=none;endFill=0;" edge="1" parent="1" source="UVKUmxEZPX85mDdvoM-r-85" target="UVKUmxEZPX85mDdvoM-r-72">
          <mxGeometry relative="1" as="geometry" />
        </mxCell>
        <mxCell id="UVKUmxEZPX85mDdvoM-r-85" value="职称" style="rounded=1;whiteSpace=wrap;html=1;" vertex="1" parent="1">
          <mxGeometry x="660" y="760" width="80" height="40" as="geometry" />
        </mxCell>
      </root>
    </mxGraphModel>
  </diagram>
</mxfile>
